<svg width="158" height="36" viewBox="0 0 158 36" fill="none" xmlns="http://www.w3.org/2000/svg">
<path d="M43.7326 15.7008C42.7471 16.6544 41.5208 17.1311 40.0536 17.1311C38.5864 17.1311 37.36 16.6544 36.3965 15.7008C35.4329 14.7473 34.9512 13.577 34.9512 12.1901C34.9512 10.8248 35.4329 9.63286 36.4184 8.67933C37.4038 7.72579 38.6302 7.24902 40.0974 7.24902C41.5646 7.24902 42.7909 7.72579 43.7544 8.67933C44.718 9.63286 45.1998 10.8031 45.1998 12.1901C45.1998 13.577 44.7399 14.7473 43.7326 15.7008ZM37.9951 14.3139C38.5645 14.899 39.2433 15.1807 40.0755 15.1807C40.9076 15.1807 41.6303 14.8773 42.1558 14.3139C42.6814 13.7504 42.988 13.0136 42.988 12.1684C42.988 11.3449 42.7033 10.6081 42.1558 10.0446C41.5865 9.45949 40.9076 9.17777 40.0755 9.17777C39.2433 9.17777 38.5207 9.48117 37.9951 10.0446C37.4476 10.6081 37.1629 11.3449 37.1629 12.1901C37.1629 13.0136 37.4476 13.7504 37.9951 14.3139Z" fill="white"/>
<path d="M46.7544 11.7352V9.89315C46.7544 9.0263 46.9515 8.37616 47.3895 7.9644C47.8274 7.55265 48.4625 7.35761 49.2946 7.33594L49.4917 8.20279C48.5282 8.28947 48.0683 8.76624 48.134 9.54641H48.9881V11.7352H46.7544Z" fill="white"/>
<path d="M50.7827 16.9796V15.3759L56.1041 9.24294H50.9579V7.40088H58.8633V8.98288L53.5201 15.1159H58.8414V16.9579H50.7827V16.9796Z" fill="white"/>
<path d="M64.1419 17.1095C62.5652 17.1095 61.1855 16.5893 60.0249 15.5708L61.2731 14.0755C62.2148 14.8556 63.1783 15.2457 64.1638 15.2457C64.6017 15.2457 64.9302 15.1807 65.193 15.0073C65.4558 14.834 65.5653 14.6173 65.5653 14.3139C65.5653 14.0321 65.4339 13.8154 65.1711 13.6421C64.9083 13.4687 64.3827 13.2953 63.5944 13.0786C63.025 12.9486 62.587 12.7969 62.2586 12.6668C61.9301 12.5368 61.5797 12.3634 61.295 12.1467C60.9884 11.93 60.7476 11.6483 60.6162 11.3232C60.4629 10.9982 60.4191 10.5864 60.4191 10.1313C60.4191 9.26445 60.7257 8.57097 61.3607 8.05086C61.9958 7.50908 62.806 7.24902 63.8134 7.24902C65.1711 7.24902 66.3974 7.66078 67.4048 8.46262L66.3098 10.0446C65.3901 9.41615 64.5579 9.11275 63.7915 9.11275C63.3973 9.11275 63.0907 9.17777 62.8717 9.35114C62.6527 9.52451 62.5652 9.71955 62.5652 9.9796C62.5652 10.283 62.6965 10.5214 62.9593 10.6731C63.2221 10.8248 63.7915 10.9982 64.6455 11.2365C65.6967 11.5183 66.485 11.865 66.9668 12.2984C67.4705 12.7319 67.7113 13.3387 67.7113 14.1405C67.7113 15.0724 67.4048 15.8092 66.7478 16.3293C66.0689 16.8494 65.2149 17.1095 64.1419 17.1095Z" fill="white"/>
<path d="M73.5806 17.1313C72.2448 17.1313 71.2374 16.7629 70.4929 16.0477C69.7702 15.3326 69.3979 14.2707 69.3979 12.8837V7.40088H71.5221V12.8187C71.5221 13.5772 71.7192 14.1623 72.0696 14.5741C72.42 14.9858 72.9455 15.1809 73.6244 15.1809C74.3033 15.1809 74.8069 14.9858 75.1792 14.5957C75.5296 14.2057 75.7267 13.6422 75.7267 12.8837V7.40088H77.8508V12.797C77.8508 14.2273 77.4786 15.2892 76.734 16.026C75.9457 16.7412 74.8945 17.1313 73.5806 17.1313Z" fill="white"/>
<path d="M83.0849 17.0446L79.165 7.40088H81.5082L84.0265 14.1406L86.5449 7.40088H88.8443L84.9463 17.0446H83.0849Z" fill="white"/>
<path d="M92.5887 16.9796V9.35129H89.6543V7.40088H97.6692V9.35129H94.7129V16.9796H92.5887V16.9796Z" fill="white"/>
<path d="M97.2314 16.9797L101.37 7.33594H103.341L107.48 16.9797H105.268L104.392 14.8342H100.297L99.4213 16.9797H97.2314ZM101.042 12.9705H103.626L102.334 9.87148L101.042 12.9705Z" fill="white"/>
<path d="M107.327 11.8001L107.13 10.9333C108.094 10.8466 108.554 10.3698 108.488 9.58968H107.634V7.40088H109.868V9.24294C109.868 10.1098 109.671 10.7599 109.233 11.1717C108.795 11.5834 108.16 11.7785 107.327 11.8001Z" fill="white"/>
<path d="M111.815 16.9796V7.40088H114.114L116.655 11.4534L119.195 7.40088H121.494V16.9796H119.392V10.7383L116.676 14.8125H116.611L113.917 10.7599V16.9579L111.815 16.9796Z" fill="white"/>
<path d="M123.904 16.9796V7.40088H126.028V16.9796H123.904V16.9796Z" fill="white"/>
<path d="M128.458 16.9796V7.40088H130.429L134.962 13.2955V7.40088H137.043V16.9796H135.225L130.539 10.9116V16.9796H128.458V16.9796Z" fill="white"/>
<path d="M147.752 15.7008C146.767 16.6544 145.54 17.1311 144.073 17.1311C142.606 17.1311 141.38 16.6544 140.416 15.7008C139.452 14.7473 138.971 13.577 138.971 12.1901C138.971 10.8248 139.452 9.63286 140.438 8.67933C141.423 7.72579 142.65 7.24902 144.117 7.24902C145.584 7.24902 146.81 7.72579 147.774 8.67933C148.738 9.63286 149.219 10.8031 149.219 12.1901C149.219 13.577 148.738 14.7473 147.752 15.7008ZM141.993 14.3139C142.562 14.899 143.241 15.1807 144.073 15.1807C144.905 15.1807 145.628 14.8773 146.153 14.3139C146.701 13.7504 146.986 13.0136 146.986 12.1684C146.986 11.3449 146.701 10.6081 146.153 10.0446C145.584 9.45949 144.905 9.17777 144.073 9.17777C143.241 9.17777 142.518 9.48117 141.993 10.0446C141.445 10.6081 141.161 11.3449 141.161 12.1901C141.161 13.0136 141.423 13.7504 141.993 14.3139Z" fill="white"/>
<path d="M152.942 16.9796V9.35129H149.986V7.40088H158.001V9.35129H155.044V16.9796H152.942V16.9796Z" fill="white"/>
<path d="M34.2373 28.341L36.8329 22.8415H37.4268L40.0223 28.341H39.3404L38.6806 26.9082H35.5791L34.8972 28.341H34.2373ZM35.843 26.3392H38.4386L37.1408 23.5579L35.843 26.3392ZM42.09 28.341V22.8837H42.7279V26.1496L46.0053 22.8837H46.8412L44.3996 25.2647L46.9512 28.341H46.1373L43.9377 25.7071L42.7279 26.8871V28.362L42.09 28.341ZM50.7565 28.4252C49.8767 28.4252 49.1068 28.1303 48.4249 27.5613L48.8209 27.1189C49.1288 27.3928 49.4368 27.5824 49.7227 27.7088C50.0307 27.8353 50.3826 27.8985 50.7565 27.8985C51.1305 27.8985 51.4384 27.8142 51.6804 27.6456C51.9223 27.4771 52.0323 27.2453 52.0323 26.9503C52.0323 26.6764 51.9223 26.4657 51.7244 26.3182C51.5264 26.1707 51.1305 26.0232 50.5586 25.9178C49.8767 25.7703 49.3928 25.5807 49.0848 25.3489C48.7769 25.1172 48.6449 24.759 48.6449 24.3375C48.6449 23.9161 48.8209 23.5579 49.1728 23.2629C49.5247 22.989 49.9647 22.8415 50.5146 22.8415C51.2624 22.8415 51.9443 23.0733 52.5162 23.5158L52.1423 24.0004C51.6364 23.6001 51.0865 23.4104 50.4926 23.4104C50.1186 23.4104 49.8327 23.4947 49.6127 23.6633C49.3928 23.8319 49.2828 24.0426 49.2828 24.2954C49.2828 24.5693 49.3928 24.78 49.5907 24.9275C49.8107 25.075 50.2066 25.2225 50.8225 25.3489C51.4604 25.4754 51.9443 25.665 52.2303 25.9178C52.5382 26.1496 52.6702 26.4867 52.6702 26.9082C52.6702 27.3717 52.4942 27.751 52.1203 28.0249C51.7904 28.2777 51.3284 28.4252 50.7565 28.4252ZM55.0018 28.341V22.8837H55.6397V28.341H55.0018ZM60.039 28.341V26.1918L57.6634 22.8837H58.4552L60.3689 25.6228L62.3046 22.8837H63.0525L60.6769 26.1707V28.341H60.039ZM63.6244 28.341L66.2199 22.8415H66.8138L69.4094 28.341H68.7275L68.0676 26.9082H64.9661L64.2843 28.341H63.6244ZM65.2081 26.3392H67.8037L66.5059 23.5579L65.2081 26.3392ZM71.4771 28.341V22.8837H73.4567C74.3366 22.8837 75.0845 23.1365 75.6344 23.6633C76.2063 24.169 76.4702 24.8222 76.4702 25.6228C76.4702 26.4025 76.1843 27.0556 75.6124 27.5824C75.0405 28.1092 74.3146 28.362 73.4347 28.362L71.4771 28.341ZM72.1149 27.7721H73.4567C74.1606 27.7721 74.7325 27.5613 75.1724 27.161C75.6124 26.7607 75.8323 26.2339 75.8323 25.6018C75.8323 24.9907 75.6124 24.464 75.1724 24.0636C74.7325 23.6633 74.1606 23.4526 73.4567 23.4526H72.1149V27.7721ZM83.531 27.6035C82.9811 28.1513 82.2772 28.4252 81.4414 28.4252C80.6055 28.4252 79.9016 28.1513 79.3517 27.6035C78.8018 27.0556 78.5379 26.3814 78.5379 25.6018C78.5379 24.8222 78.8018 24.169 79.3517 23.6211C79.9016 23.0733 80.6055 22.7783 81.4414 22.7783C82.2772 22.7783 82.9811 23.0522 83.531 23.6001C84.0809 24.1479 84.3449 24.8222 84.3449 25.6018C84.3449 26.3814 84.0589 27.0556 83.531 27.6035ZM79.8357 27.2031C80.2536 27.6456 80.8035 27.8563 81.4414 27.8563C82.0793 27.8563 82.6292 27.6456 83.0471 27.2031C83.465 26.7607 83.685 26.2339 83.685 25.6018C83.685 24.9697 83.465 24.4429 83.0471 24.0004C82.6292 23.5579 82.0793 23.3472 81.4414 23.3472C80.8035 23.3472 80.2536 23.5579 79.8357 24.0004C79.4177 24.4218 79.2198 24.9697 79.2198 25.6018C79.1978 26.2339 79.4177 26.7817 79.8357 27.2031ZM86.6325 28.341V22.8837H89.0741C89.778 22.8837 90.3059 23.0733 90.7018 23.4315C90.9878 23.7054 91.1418 24.0847 91.1418 24.5272C91.1418 24.9697 91.0098 25.3068 90.7238 25.5807C90.4379 25.8546 90.0639 26.0232 89.602 26.1075L91.3617 28.341H90.5698L88.9201 26.2128H87.2924V28.341H86.6325ZM87.2704 25.665H89.0301C89.47 25.665 89.822 25.5596 90.0859 25.37C90.3499 25.1593 90.5039 24.8854 90.5039 24.5272C90.5039 24.1901 90.3719 23.9372 90.1079 23.7476C89.844 23.5579 89.492 23.4526 89.0521 23.4526H87.2924V25.665H87.2704V25.665ZM93.4514 28.341V22.8837H94.0893V27.7721H97.3007V28.341H93.4514ZM99.4784 28.341V22.8837H100.116V28.341H99.4784ZM102.734 28.341V22.8837H103.372V26.1496L106.649 22.8837H107.485L105.043 25.2647L107.595 28.341H106.781L104.581 25.7071L103.372 26.8871V28.362L102.734 28.341ZM114.106 28.4252C113.336 28.4252 112.764 28.1092 112.346 27.456L112.808 27.0767C112.984 27.3506 113.182 27.5403 113.38 27.6667C113.578 27.7931 113.82 27.8563 114.106 27.8563C114.436 27.8563 114.7 27.751 114.92 27.5192C115.118 27.2874 115.228 26.9714 115.228 26.55V22.8837H115.888V26.5289C115.888 27.161 115.712 27.6246 115.36 27.9617C115.03 28.2777 114.612 28.4252 114.106 28.4252ZM117.625 28.341L120.221 22.8415H120.815L123.41 28.341H122.728L122.069 26.9082H118.967L118.285 28.341H117.625ZM119.231 26.3392H121.827L120.529 23.5579L119.231 26.3392ZM125.478 28.341V22.8837H126.138L128.206 25.8546L130.273 22.8837H130.933V28.341H130.295V23.9161L128.228 26.8449H128.206L126.138 23.9372V28.341H125.478ZM133.551 28.341V22.8837H134.189V28.341H133.551ZM138.566 28.341V26.1918L136.212 22.8837H137.004L138.918 25.6228L140.853 22.8837H141.601L139.226 26.1707V28.341H138.566ZM142.173 28.341L144.769 22.8415H145.363L147.958 28.341H147.276L146.616 26.9082H143.515L142.833 28.341H142.173ZM143.757 26.3392H146.352L145.055 23.5579L143.757 26.3392ZM150.796 28.341V23.4526H148.882V22.8837H153.369V23.4526H151.456V28.341H150.796ZM155.569 28.341V22.8837H156.207V28.341H155.569Z" fill="white"/>
<path d="M27.1043 23.5682C27.1043 30.0367 21.4826 35.9991 13.5494 35.9991C9.46862 35.9991 5.9586 34.396 3.56151 31.9773C2.39151 30.8242 1.47833 29.418 0.879058 27.9556C-0.490707 24.6369 -0.348023 20.7557 1.93492 17.2683L10.2106 4.55614L11.1808 3.06555C11.3235 2.84055 11.6945 2.84055 11.8372 3.06555L12.8074 4.55614L13.635 5.82173L18.5433 13.4153L21.3684 17.7464L22.1675 18.9839C22.3387 19.237 22.4814 19.5183 22.6241 19.7714C23.2804 21.037 23.5943 22.3588 23.5943 23.6525C23.5943 28.068 20.0558 32.1179 14.9477 32.7086C14.7765 32.7367 14.6338 32.7367 14.4626 32.7367C14.3199 32.7367 14.1772 32.7648 14.006 32.7648C13.8633 32.7648 13.7206 32.7648 13.6065 32.7648C13.4638 32.7648 13.1499 32.7648 13.1213 32.7648V30.8524V30.8242L17.8299 23.3713H12.5221V27.9556C12.5221 29.7274 11.5518 31.2742 9.8396 32.1461C9.12618 31.893 8.46984 31.5555 7.84203 31.1617C7.67081 31.0492 7.47105 30.9086 7.29983 30.7961C5.67323 29.6149 4.47469 27.9274 3.93249 26.0712C3.73273 25.3681 3.59005 24.6369 3.56151 23.9057C3.53298 22.2744 3.93249 20.587 4.95981 19.012L10.182 10.9685L11.4662 8.99977V9.78726C11.4662 11.8403 10.8384 13.8653 9.72545 15.6371L6.84324 19.9964C6.18689 21.037 5.81592 22.1057 5.75884 23.1744C5.73031 23.7088 5.75884 24.2431 5.81592 24.7494C6.18689 26.8587 7.61373 28.7712 9.66838 29.8399C10.0108 29.3618 10.2391 28.7712 10.2962 28.1524V21.3182H20.2841V23.3432L15.8323 30.543C19.1711 29.643 21.397 26.7743 21.397 23.6807C21.397 23.1463 21.3399 22.6119 21.1972 22.0494C21.026 21.3463 20.7121 20.6995 20.3126 20.0245L20.1414 19.7433L16.6313 14.4278L13.5779 9.70288L12.2938 7.73418L11.6374 6.72171C11.5803 6.60921 11.4091 6.60921 11.3235 6.72171L3.78981 18.337C2.42004 20.4464 1.96345 22.6963 2.24882 24.89C2.39151 26.015 2.76248 27.1118 3.27615 28.1243C3.78981 29.1086 4.44615 30.0086 5.27372 30.7961C5.38787 30.9086 5.50201 31.0211 5.61616 31.1336C6.30104 31.7242 7.07153 32.2586 7.92764 32.7086C7.98471 32.7367 8.04178 32.7648 8.09886 32.7929C9.09764 33.2992 10.1535 33.6367 11.3235 33.8617C12.0369 33.9742 12.7789 34.0585 13.5494 34.0585H13.5779C20.1984 34.0304 24.907 29.0524 24.907 23.6525C24.907 21.8807 24.3933 20.0807 23.2804 18.337L19.7704 12.8809L13.5494 3.29054L12.2652 1.32184L11.4091 0C12.9786 0 14.4626 0.759356 15.2901 2.02495L21.6824 11.8122L25.2209 17.2402C26.5336 19.2933 27.1043 21.487 27.1043 23.5682Z" fill="white"/>
</svg>
