<svg xmlns="http://www.w3.org/2000/svg" width="52" height="49" viewBox="0 0 52 49" fill="none">
  <path d="M24.7051 3.10037L25.2071 3.43411L26.5317 4.31453L27.6981 5.08787L27.6806 5.14713L27.4904 5.38732L27.393 5.59903L27.2412 6.07907L27.1256 6.39786L26.8967 6.77011L26.7245 6.98446L26.6497 7.35635L26.5523 7.72808L26.439 7.99254L26.3054 8.23168L26.038 8.57755L25.9224 8.84166L25.8272 9.10559L25.7682 9.37251L25.8657 9.90302L26.056 10.3514L26.3052 10.6679L26.9351 11.382L27.8914 12.3296L28.3877 12.8043L28.7888 13.0947L29.1899 13.4098L29.276 13.5033L29.3054 13.6468L29.2669 13.9367L29.1127 14.1736L28.7502 14.4103L28.6346 14.7247L28.5031 15.0391L28.3309 15.3533L28.4442 15.6424L28.8272 15.6953L29.1716 15.6705L29.4775 15.5896L29.6769 15.4062L29.9534 15.3814L30.2616 15.4312L30.5471 15.3285L30.8711 15.117L31.3108 14.8275L31.5034 14.5661L31.5396 14.4352L31.4353 14.3169L31.2926 14.3044L31.1679 14.2515L31.0817 14.1736L31.0546 14.08V13.974L31.1021 13.8836L31.1496 13.7651L31.2449 13.6747L31.3106 13.6062H31.4353L31.637 13.6218L31.8567 13.6593L31.9995 13.6218L32.1151 13.5033L32.1717 13.3567L32.2758 13.0009L32.3234 12.6605L32.2871 12.3294L32.201 11.7636L32.0674 11.3287L31.8951 10.9842L31.8385 10.6428L31.8181 10.3512L31.9518 10.1787L32.0854 10.0722L32.2281 9.90284L32.3437 9.66124L32.4004 9.37234V8.97336L32.4207 8.47046V8.21128L32.5683 8.30869L34.0632 9.29303L35.4731 10.2208L36.7596 11.0657L37.8815 11.8019L38.8004 12.404L39.4759 12.8465L39.9558 13.1606L40.1546 13.3813L40.2938 13.6623L40.3431 13.9195L40.3931 14.4676L40.4679 14.7147L40.9206 15.4329L41.8037 16.3749L42.2253 16.8251L42.6478 17.2754L43.1873 17.8887L43.629 18.3928L44.0722 18.8968L44.5145 19.4L44.9569 19.9029L45.3888 20.3946L45.8217 20.8864L46.2546 21.3773L46.6865 21.8676L47.2641 22.5205L47.4201 22.5869L47.5751 22.6534L47.5921 22.6502L48.415 24.0393L48.8008 24.3914L50.883 24.9604L51 25.0281L50.9988 25.1322L50.9569 25.2523L48.8618 29.1522L46.8882 32.8919L46.4641 33.8703L46.291 35.9967V36.1224L46.3137 36.2203L47.1917 37.8157L47.3438 38.1335L47.3116 38.1883L47.2193 38.2852L45.5652 39.2059L45.3976 39.3455L45.4024 39.48L45.4633 39.6182L48.764 44.0967L50.9525 47.0959L50.9584 47.2338L49.2191 48.0574L48.8128 48.1889L48.697 48.1511L48.5884 48.0901L48.557 48.0581L47.6373 46.6124L46.3269 45.1839L45.873 44.8406L45.5253 44.6312L45.153 44.4747L43.6822 44.1241L43.2652 44.123L43.1137 44.1572L42.9737 44.2263L42.8556 44.3191L42.7327 44.4649L42.4268 45.0465L42.292 45.1482L42.0962 45.1666L41.9132 45.0961L41.8636 45.0666L41.7462 45.0091L41.6551 44.7147L41.5572 44.5684L41.1486 44.1195L41.0034 44.0353L40.5578 43.9502L40.384 43.8813L40.1466 43.6687L39.87 43.361L39.7798 43.3029L39.6835 43.2625L39.4877 43.222L37.6641 41.5947L37.4147 41.3146L37.2162 40.9652L37.0852 40.5709L36.9981 40.4037L36.8768 40.335L36.5077 40.3234L36.3465 40.2829L36.2129 40.196L36.1046 40.0598L35.889 39.6763L35.8043 39.416L35.5962 39.1L35.5342 38.9397L35.539 38.48L35.5124 38.2697L35.4031 38.1813L35.0224 38.1401L34.6361 38.0422L34.5538 37.9984L34.3894 37.8727L34.2646 37.8945L34.2192 37.9209L34.0723 38.0489L33.6793 38.3216L33.5207 38.3874L33.3115 38.3953L33.1909 38.419L33.1384 38.4602L33.1157 38.5068L33.1276 38.5523L33.1432 38.598L33.2327 38.7712L33.2482 38.8838L33.1564 39.111L33.0658 39.2105L32.8893 38.9436L32.6626 38.751L31.8535 38.4486L31.4541 38.4628L31.3442 38.4141L31.259 38.2696L31.2709 38.1351L31.3576 38.0346L31.4937 37.9956L31.496 37.9963H31.4984H31.5007L31.9573 37.8208L31.9334 37.4182L31.7822 36.9165L31.853 36.443L31.9795 36.3519L32.137 36.2877L32.2635 36.1966L32.2898 36.0252L32.1958 35.8917L32.0175 35.7867L31.6761 35.6543L31.4064 35.4133L31.1923 35.083L30.9497 34.82L30.6005 34.7813L30.2568 34.8226L29.5884 34.7628L27.9613 35.0104L27.5634 34.9988L27.3709 34.9258L27.0638 34.5991L26.8832 34.5374L26.4908 34.495L26.2697 34.3762L26.1678 34.1936L26.0764 33.4099L26.0031 33.2133L25.8942 33.0403L25.4048 32.5364L25.2194 32.4208L25.0229 32.4416L24.7994 32.5487L24.5775 32.6088L24.3515 32.6218L24.0087 32.561L23.4677 32.3197L22.9522 31.8473L21.2957 29.9187L21.108 29.8119L20.9656 30.0461L20.8605 30.9218L20.6974 31.2216L20.3793 31.3148L19.9839 31.2904L19.5893 31.1993L18.7586 30.867L18.5708 30.8608L18.4268 30.9058L18.0186 31.1527L17.7281 31.2784L17.5881 31.383L17.5164 31.5334L17.5602 31.7316L17.7042 31.8596L18.6685 32.3076L18.9399 32.517L19.177 32.8764L19.3822 33.3556L19.9535 34.2726L20.2639 34.6352L20.3514 34.7152L20.3864 34.8054L20.3594 34.8887L20.2639 34.9459L19.769 35.0199L19.6432 34.9881L19.5525 34.8502L19.5548 34.6911L19.5963 34.5154L19.6225 34.3282L19.5437 33.9633L19.3456 33.7008L19.0846 33.5114L18.32 33.1548L18.1513 33.1247L18.0122 33.1478L17.7329 33.2666L17.6081 33.2781L17.4848 33.2067L17.309 32.9478L17.1977 32.839L17.0512 32.788L16.877 32.7827L16.7059 32.8144L16.5651 32.8789L16.4831 32.9816L16.4156 33.1013L16.2191 33.3243L16.0099 33.4164L15.8795 33.526L15.9232 33.7978L16.0879 34.1479L16.1015 34.3078L16.0347 34.5467L15.7212 35.2571L15.6106 35.3793L15.3162 35.4734L15.2533 35.6072L15.309 35.7683L15.4077 35.878L15.4316 35.9751L15.2621 36.0966L15.1141 36.1287L14.5882 36.1046L14.4394 36.1395L14.0137 36.3462L13.6556 36.4169L12.5664 36.2295L11.8272 36.259L11.1031 36.6086L10.4841 37.2096L10.0616 37.9933V37.996L9.77361 38.4178L9.45687 38.6552L8.7178 38.9979L8.50056 39.2936L8.49824 39.6858L8.66849 40.4881L8.64938 40.8704L8.58881 41.1969L8.58006 41.5166L8.7178 41.8788L8.88877 42.1568L8.97702 42.4222L9.0056 42.7141L9.00006 43.0717L9.03508 43.3518L9.13852 43.6317L9.28644 43.8809L9.45508 44.0689L9.56406 44.1466L9.68179 44.2041L10.0677 44.2975L10.1266 44.3418L10.1098 44.4107L10.0232 44.5125L9.85937 44.6282L9.50046 44.8055L9.34843 44.978L9.11136 45.4047L8.96255 45.4902L8.02125 45.2964L7.29397 45.1454L5.57376 45.053L5.29436 45.0381L3.7017 44.9525L2.26876 44.8747L1.01965 44.8085L1.01804 42.4884L1.01644 40.1614L1.01572 37.8256L1.01411 35.4813L1.0134 33.1284L1.01197 30.7681L1.01125 28.3978L1.00965 26.0188L1.00893 23.631L1.00732 21.234L1.00661 18.8279L1.005 16.4125L1.00429 13.9869L1.00268 11.5527L1.00197 9.10841L1 6.65458V6.65353V6.65247V6.65142V6.65036V6.64843V6.64614V6.64509V6.64403V6.64298L1.00071 6.64192L1.00143 6.64087V6.63981V6.63876L1.00214 6.63718V6.63612L1.00286 6.63507L1.00375 6.63401L1.00536 6.63243L1.00679 6.63137V6.63032L1.00822 6.62926L1.00965 6.62821L1.01054 6.62768L1.01215 6.62715L1.01358 6.6261L1.01501 6.62557L1.01644 6.62452L1.01786 6.62399L1.73943 6.39522L2.46099 6.16751L3.18184 5.9391L3.90501 5.71016L4.62657 5.48157L5.34813 5.25298L6.06898 5.02421L6.63172 4.84591L6.79054 4.79562L7.51299 4.56668L8.23384 4.33827L8.9554 4.10933L9.67696 3.87968L10.3994 3.65109L11.121 3.42127L11.8425 3.19198L12.5643 2.96251L13.5261 2.67168L14.488 2.38014L15.4507 2.08895L16.4134 1.79706L16.8581 1.66588L17.3029 1.53576L17.7478 1.40512L18.1942 1.27394L18.6573 1.14206L19.121 1.00913L19.5848 0.876194L20.0479 0.743612L20.6717 0.566895L20.8523 0.583599L21.0624 0.675211L21.1294 0.719874L21.1232 0.740447L20.9985 1.05238L20.969 1.24967L20.9327 1.36731L20.833 1.58676L20.8036 1.70756L20.808 2.01598L20.7809 2.09545L20.7514 2.12095L20.6856 2.15594L20.6562 2.18144L20.6358 2.2196L20.5565 2.4197L20.2891 2.79107L20.2505 2.86088L20.2301 2.89253L20.1485 2.96867L19.7904 3.46031L19.7586 3.53645L19.7383 3.62208L19.7134 3.8883L19.6182 4.18283L19.5209 4.40122L19.4778 4.5658L19.4348 4.91379L19.394 5.08136L19.3306 5.24893L19.2513 5.40068L19.2038 5.46398L19.0905 5.57775L19.043 5.64404L19.0112 5.71983L18.9953 5.79245L18.9794 5.95352L18.9476 6.10193L18.4354 7.3444L18.3605 7.82619L18.3379 8.13778L18.3446 8.45235L18.5101 8.91129L18.671 9.31343L18.8863 9.65561L19.0155 10.1168L18.9951 10.3707L18.952 10.5462L18.8863 10.6966L18.7253 10.8L18.5328 11.0662L18.4988 11.2383L18.4377 11.3447L18.4082 11.4323L18.3947 11.523L18.4468 11.9141L18.576 12.3424L18.7686 12.5205L18.9204 12.683L19.2309 12.7298L19.598 12.6985L19.9764 12.4892L20.3775 12.1736L20.7219 11.8578L20.9508 11.567L21.0664 11.3823L21.1616 11.2227L21.3134 11.0379L21.506 10.7748L21.6782 10.4835L21.8119 10.2985L21.9433 10.1135L21.9819 9.98179L21.8687 9.78098L21.7145 9.71505L21.5242 9.63662L21.6398 9.88772L21.5062 9.92851L21.3136 9.87524L21.2387 9.74336L21.3136 9.34473L21.4088 9.1594L21.4678 9.02752L21.6196 8.97407L21.7352 8.92061L21.8871 8.97407L21.9256 9.18771L21.9642 9.31959L22.0775 9.42316L22.2317 9.45146L22.4809 9.39801L22.6145 9.23782L22.5759 9.02734L22.4037 8.86716L22.3085 8.70996L22.3855 8.44268L22.4035 8.0998L22.3083 7.75357L22.2517 7.43548V7.22131L22.4035 7.17085L22.6143 7.14254L22.7276 6.90304L22.7662 6.63823L22.8251 6.4522L22.8818 6.1334L22.7096 6.02614L22.5373 6.15872L22.4037 6.42388L22.1159 6.58478L21.9255 6.6101L21.7352 6.77099L21.5064 6.6101L21.486 6.37342L21.5812 6.10509L21.7148 5.81144L21.8304 5.5461L22.0775 5.28059L22.1931 5.06554L22.4039 4.85365L22.6327 4.6386L22.805 4.55947L22.4425 4.29361L22.252 4.05289L22.0775 3.38417L22.0026 2.95601L21.9823 2.66078L22.0026 2.34005L22.1159 1.96516L22.2315 1.64408L22.2972 1.49866L22.3013 1.50147L23.0508 2.00103L24.0317 2.65462L24.7051 3.10037Z" fill="#D5DDEC" stroke="#A5BFE4" stroke-linecap="round" stroke-linejoin="round"/>
</svg>